name C:\Users\u0101727\Documents\MyRepositories\upper-imu-dc\Results\main_mocap_tracking\Case_8\kinematics.mot
datacolumns 12
datarows 27
range 1.00000000 1.26000000
endheader 
time	clav_prot	clav_elev	scapula_abduction	scapula_elevation	scapula_upward_rot	scapula_winging	plane_elv	shoulder_elv	axial_rot	elbow_flexion	pro_sup	
          1.00000000	        -22.64938534	         -5.29272395	        -10.84100107	         -5.46238968	         15.60104003	          5.09746744	         38.18639578	         26.51194182	        -10.81169829	         -0.00447962	         34.31998800	
          1.01000000	        -22.64154762	         -5.26882151	        -10.69596650	         -5.50017904	         15.82756889	          5.03350374	         39.38478857	         27.26543939	        -13.22536264	         -0.00538650	         34.32012529	
          1.02000000	        -22.62784566	         -5.24062003	        -10.53421003	         -5.53702280	         16.06577916	          4.96488497	         40.54119364	         28.00961695	        -15.59534214	         -0.00650513	         34.32027411	
          1.03000000	        -22.60827910	         -5.20664073	        -10.35434055	         -5.57243447	         16.31838811	          4.89039819	         41.68209100	         28.73138443	        -17.78194445	         -0.00745423	         34.32037971	
          1.04000000	        -22.58461032	         -5.16555475	        -10.15815645	         -5.60605303	         16.58777287	          4.80904802	         42.83721009	         29.42163690	        -19.67519900	         -0.00715039	         34.32033786	
          1.05000000	        -22.55925601	         -5.11495186	         -9.94888966	         -5.63669313	         16.87619181	          4.71949962	         44.03042789	         30.07560533	        -21.20486287	         -0.00555441	         34.32018342	
          1.06000000	        -22.53386995	         -5.05039105	         -9.72846200	         -5.66174627	         17.18662670	          4.61945899	         45.27074846	         30.69198620	        -22.34089244	         -0.00474661	         34.32012454	
          1.07000000	        -22.51010397	         -4.97091041	         -9.49920259	         -5.68074554	         17.52001583	          4.50844075	         46.55413727	         31.27429459	        -23.09374996	         -0.00537215	         34.32023084	
          1.08000000	        -22.48932810	         -4.87953819	         -9.26344177	         -5.69567022	         17.87497126	          4.38801276	         47.86314058	         31.83012082	        -23.51459957	         -0.00641830	         34.32038800	
          1.09000000	        -22.47250305	         -4.78226740	         -9.02327686	         -5.71026930	         18.24822957	          4.26128280	         49.16998277	         32.36997984	        -23.69290736	         -0.00613313	         34.32040355	
          1.10000000	        -22.45959185	         -4.68567415	         -8.77937786	         -5.72851382	         18.63586904	          4.13167370	         50.44204350	         32.90550840	        -23.74518327	         -0.00318884	         34.32013624	
          1.11000000	        -22.44992266	         -4.59426603	         -8.53127007	         -5.75298552	         19.03487606	          4.00157730	         51.64907442	         33.44716353	        -23.79291067	          0.00263617	         34.31956151	
          1.12000000	        -22.44229529	         -4.50832801	         -8.27723289	         -5.78355082	         19.44439683	          3.87127090	         52.76977374	         34.00222777	        -23.93559022	          0.00953144	         34.31886214	
          1.13000000	        -22.43559397	         -4.42344315	         -8.01515065	         -5.81714343	         19.86620286	          3.73866732	         53.79419123	         34.57347142	        -24.22857400	          0.01368163	         34.31843941	
          1.14000000	        -22.42885519	         -4.33320205	         -7.74298322	         -5.84943434	         20.30306965	          3.60071459	         54.72418620	         35.15979778	        -24.67435928	          0.01160068	         34.31862534	
          1.15000000	        -22.42190082	         -4.23659685	         -7.46135026	         -5.87928198	         20.75371422	          3.45738174	         55.57707307	         35.76019121	        -25.22997470	          0.00518293	         34.31923887	
          1.16000000	        -22.41484274	         -4.13533505	         -7.17213123	         -5.90713376	         21.21472244	          3.31016886	         56.37584727	         36.37282433	        -25.82404420	         -0.00131548	         34.31986857	
          1.17000000	        -22.40819185	         -4.02941515	         -6.87752526	         -5.93248109	         21.68395285	          3.15965549	         57.13850347	         36.99352502	        -26.37944349	         -0.00575657	         34.32030011	
          1.18000000	        -22.40278365	         -3.91792049	         -6.58011189	         -5.95431185	         22.15992955	          3.00593904	         57.87584181	         37.61749243	        -26.83693426	         -0.00798383	         34.32051781	
          1.19000000	        -22.39930230	         -3.80016221	         -6.28225063	         -5.97176792	         22.64107175	          2.84921944	         58.59017173	         38.24073281	        -27.17377810	         -0.00871645	         34.32058930	
          1.20000000	        -22.39782285	         -3.67659295	         -5.98527956	         -5.98473270	         23.12537250	          2.69018872	         59.27500857	         38.86075142	        -27.41295926	         -0.00872047	         34.32058463	
          1.21000000	        -22.39774220	         -3.54915804	         -5.68919205	         -5.99412737	         23.61057675	          2.53010983	         59.91739129	         39.47651286	        -27.61857425	         -0.00835743	         34.32053797	
          1.22000000	        -22.39820180	         -3.42076114	         -5.39318033	         -6.00163249	         24.09465171	          2.37052260	         60.50326462	         40.08791900	        -27.87514076	         -0.00756957	         34.32045035	
          1.23000000	        -22.39868824	         -3.29410967	         -5.09670534	         -6.00893286	         24.57615244	          2.21275880	         61.02417168	         40.69516728	        -28.25471319	         -0.00616080	         34.32031540	
          1.24000000	        -22.39945091	         -3.17055677	         -4.80049056	         -6.01687800	         25.05423576	          2.05753679	         61.48208011	         41.29832753	        -28.78446246	         -0.00411592	         34.32014017	
          1.25000000	        -22.40149252	         -3.04946276	         -4.50687839	         -6.02494175	         25.52834233	          1.90480806	         61.88958867	         41.89742452	        -29.43312268	         -0.00174153	         34.31994675	
          1.26000000	        -22.40600429	         -2.92833606	         -4.21911691	         -6.03121187	         25.99776129	          1.75388928	         62.26496203	         42.49299354	        -30.12771748	          0.00045050	         34.31976400	
